<svg width="156" height="72" viewBox="0 0 156 72" fill="none" xmlns="http://www.w3.org/2000/svg">
<path d="M24.0449 37.0605C23.6257 37.6595 23.0866 38.4082 22.4277 39.3066C21.7689 40.1751 21.0801 41.0586 20.3613 41.957C19.6725 42.8255 18.9837 43.6341 18.2949 44.3828C17.6361 45.1016 17.082 45.6107 16.6328 45.9102C16.3333 46.0898 15.9889 46.2396 15.5996 46.3594C15.2103 46.4792 14.806 46.554 14.3867 46.584C13.9974 46.6139 13.623 46.584 13.2637 46.4941C12.9043 46.4342 12.5898 46.3145 12.3203 46.1348C12.0508 45.9251 11.8262 45.6257 11.6465 45.2363C11.4967 44.9069 11.347 44.4727 11.1973 43.9336C11.0775 43.3945 11.0326 42.7207 11.0625 41.9121C10.3438 43.11 9.55013 44.0384 8.68164 44.6973C7.81315 45.3262 6.98958 45.7904 6.21094 46.0898C5.3125 46.4193 4.41406 46.6139 3.51562 46.6738C3.09635 46.6738 2.64714 46.5241 2.16797 46.2246C1.6888 45.9551 1.28451 45.5208 0.955078 44.9219C0.625651 44.293 0.416016 43.4993 0.326172 42.541C0.236328 41.5527 0.35612 40.3848 0.685547 39.0371C1.10482 37.2103 1.76367 35.5482 2.66211 34.0508C3.59049 32.5534 4.59375 31.2806 5.67188 30.2324C6.75 29.1543 7.81315 28.3457 8.86133 27.8066C9.90951 27.2676 10.778 27.028 11.4668 27.0879C12.2754 27.2376 12.9342 27.4772 13.4434 27.8066C13.8626 28.1061 14.1322 28.5553 14.252 29.1543C14.4017 29.7233 14.1621 30.487 13.5332 31.4453C13.9525 31.3555 14.2969 31.2956 14.5664 31.2656C14.8659 31.2357 15.0905 31.2207 15.2402 31.2207C15.4199 31.2207 15.5397 31.2357 15.5996 31.2656C15.6296 31.3255 15.6445 31.4603 15.6445 31.6699C15.6445 31.8496 15.5996 32.194 15.5098 32.7031C15.4199 33.2122 15.2852 33.901 15.1055 34.7695C14.9258 35.638 14.6862 36.7611 14.3867 38.1387C14.3268 38.4082 14.2669 38.6628 14.207 38.9023C14.1771 39.112 14.1322 39.3366 14.0723 39.5762C14.0423 39.7858 13.9974 40.0404 13.9375 40.3398C13.8776 40.6393 13.8027 41.0137 13.7129 41.4629C13.6829 41.7324 13.668 42.0319 13.668 42.3613C13.6979 42.6608 13.7578 42.9453 13.8477 43.2148C13.9375 43.4844 14.0723 43.709 14.252 43.8887C14.4616 44.0384 14.7461 44.1133 15.1055 44.1133C15.4049 44.1133 15.7943 43.9336 16.2734 43.5742C16.7526 43.1849 17.2617 42.7057 17.8008 42.1367C18.3398 41.5378 18.8939 40.8939 19.4629 40.2051C20.0618 39.4863 20.6159 38.7975 21.125 38.1387C21.6341 37.4798 22.0833 36.8958 22.4727 36.3867C22.8919 35.8776 23.1914 35.5033 23.3711 35.2637C23.6107 34.9941 23.8503 34.8444 24.0898 34.8145C24.3294 34.7546 24.5091 34.8145 24.6289 34.9941C24.7487 35.1738 24.7637 35.4434 24.6738 35.8027C24.6139 36.1621 24.4043 36.5814 24.0449 37.0605ZM10.8828 39.0371C11.0326 38.4382 11.2122 37.7344 11.4219 36.9258C11.6315 36.1172 11.8112 35.3385 11.9609 34.5898C12.1107 33.8411 12.2155 33.2272 12.2754 32.748C12.3652 32.2389 12.3503 31.9993 12.2305 32.0293C12.0807 32.0592 11.916 32.1042 11.7363 32.1641C11.5866 32.224 11.3919 32.2689 11.1523 32.2988C10.9128 32.3288 10.6732 32.3737 10.4336 32.4336C10.6732 31.9544 10.8079 31.5651 10.8379 31.2656C10.8978 30.9362 10.9128 30.6816 10.8828 30.502C10.8529 30.2923 10.793 30.1276 10.7031 30.0078C10.3737 29.7383 9.78971 29.9629 8.95117 30.6816C8.14258 31.3704 7.19922 32.6582 6.12109 34.5449C5.67188 35.3236 5.3125 36.1621 5.04297 37.0605C4.77344 37.929 4.57878 38.7526 4.45898 39.5312C4.36914 40.3099 4.35417 40.9987 4.41406 41.5977C4.47396 42.1667 4.59375 42.541 4.77344 42.7207C5.10286 43.0501 5.47721 43.2148 5.89648 43.2148C6.31576 43.1849 6.73503 43.0651 7.1543 42.8555C7.60352 42.6159 8.03776 42.3164 8.45703 41.957C8.90625 41.5977 9.29557 41.2233 9.625 40.834C9.98438 40.4447 10.2689 40.0853 10.4785 39.7559C10.7181 39.4264 10.8529 39.1868 10.8828 39.0371ZM18.0613 45.2812C19.379 39.7409 20.4272 35.2936 21.2059 31.9395C22.0145 28.5853 22.6284 26.0247 23.0477 24.2578C23.5268 22.1615 23.8563 20.709 24.0359 19.9004C24.1258 19.3314 24.2007 18.7773 24.2605 18.2383C24.3204 17.7591 24.3504 17.265 24.3504 16.7559C24.3504 16.2467 24.3055 15.7826 24.2156 15.3633C24.4552 15.2135 24.7098 15.0938 24.9793 15.0039C25.2788 14.9141 25.5633 14.8392 25.8328 14.7793C26.1622 14.6895 26.4917 14.6146 26.8211 14.5547C27.1505 14.4948 27.45 14.4648 27.7195 14.4648C27.9591 14.4648 28.1837 14.4948 28.3934 14.5547C28.603 14.5846 28.7378 14.6745 28.7977 14.8242C28.9773 14.974 29.0522 15.2734 29.0223 15.7227C29.0223 16.1719 28.9923 16.6361 28.9324 17.1152C28.8126 17.6842 28.6779 18.2982 28.5281 18.957C28.1688 20.2448 27.6746 22.1016 27.0457 24.5273C26.5066 26.5938 25.7729 29.4089 24.8445 32.9727C23.9461 36.5365 22.8081 41.0286 21.4305 46.4492C21.2807 46.599 21.101 46.7038 20.8914 46.7637C20.6818 46.8236 20.4871 46.8535 20.3074 46.8535C20.0978 46.8535 19.8732 46.8385 19.6336 46.8086C19.424 46.7487 19.2143 46.6589 19.0047 46.5391C18.825 46.4193 18.6453 46.2546 18.4656 46.0449C18.2859 45.8652 18.1512 45.6107 18.0613 45.2812ZM25.8238 45.2812C27.1415 39.7409 28.1897 35.2936 28.9684 31.9395C29.777 28.5853 30.3909 26.0247 30.8102 24.2578C31.2893 22.1615 31.6187 20.709 31.7984 19.9004C31.8883 19.3314 31.9632 18.7773 32.023 18.2383C32.0829 17.7591 32.1129 17.265 32.1129 16.7559C32.1129 16.2467 32.068 15.7826 31.9781 15.3633C32.2177 15.2135 32.4723 15.0938 32.7418 15.0039C33.0413 14.9141 33.3258 14.8392 33.5953 14.7793C33.9247 14.6895 34.2542 14.6146 34.5836 14.5547C34.913 14.4948 35.2125 14.4648 35.482 14.4648C35.7216 14.4648 35.9462 14.4948 36.1559 14.5547C36.3655 14.5846 36.5003 14.6745 36.5602 14.8242C36.7398 14.974 36.8147 15.2734 36.7848 15.7227C36.7848 16.1719 36.7548 16.6361 36.6949 17.1152C36.5751 17.6842 36.4404 18.2982 36.2906 18.957C35.9312 20.2448 35.4371 22.1016 34.8082 24.5273C34.2691 26.5938 33.5354 29.4089 32.607 32.9727C31.7086 36.5365 30.5706 41.0286 29.193 46.4492C29.0432 46.599 28.8635 46.7038 28.6539 46.7637C28.4443 46.8236 28.2496 46.8535 28.0699 46.8535C27.8603 46.8535 27.6357 46.8385 27.3961 46.8086C27.1865 46.7487 26.9768 46.6589 26.7672 46.5391C26.5875 46.4193 26.4078 46.2546 26.2281 46.0449C26.0484 45.8652 25.9137 45.6107 25.8238 45.2812ZM39.8305 46.7188C38.6924 46.7188 37.7641 46.5391 37.0453 46.1797C36.3266 45.8203 35.7576 45.3861 35.3383 44.877C34.949 44.3379 34.6645 43.7689 34.4848 43.1699C34.335 42.541 34.2602 41.972 34.2602 41.4629C34.2602 40.5645 34.335 39.6211 34.4848 38.6328C34.6345 37.6146 34.8142 36.6862 35.0238 35.8477C35.2335 34.9792 35.4131 34.2454 35.5629 33.6465C35.7426 33.0475 35.8624 32.6732 35.9223 32.5234C36.1918 31.6549 36.5362 30.9062 36.9555 30.2773C37.4047 29.6185 38.0186 29.1693 38.7973 28.9297C39.0967 28.8698 39.4112 28.8099 39.7406 28.75C40.0102 28.7201 40.2797 28.7051 40.5492 28.7051C40.8487 28.7051 41.1182 28.75 41.3578 28.8398C40.5492 30.9062 39.9053 32.6283 39.4262 34.0059C38.977 35.3835 38.6326 36.5065 38.393 37.375C38.1234 38.3633 37.9587 39.1569 37.8988 39.7559C37.7491 41.1035 37.8689 42.1217 38.2582 42.8105C38.6475 43.4993 39.4411 43.8438 40.6391 43.8438C41.4177 43.8438 42.1664 43.5592 42.8852 42.9902C43.6039 42.3913 44.2628 41.6276 44.8617 40.6992C44.7719 40.2201 44.727 39.7259 44.727 39.2168C44.727 38.2585 44.8018 37.3301 44.9516 36.4316C45.1312 35.5033 45.3259 34.6497 45.5355 33.8711C45.7751 33.0625 46.0147 32.3438 46.2543 31.7148C46.5238 31.0859 46.7484 30.5918 46.9281 30.2324C47.2576 29.5137 47.557 29.0794 47.8266 28.9297C48.0961 28.75 48.5303 28.6452 49.1293 28.6152C49.3689 28.5853 49.5635 28.5853 49.7133 28.6152C49.893 28.6152 50.0427 28.6302 50.1625 28.6602C50.5219 28.75 50.7016 28.9297 50.7016 29.1992C50.7016 29.6784 50.6716 30.3971 50.6117 31.3555C50.5518 32.3138 50.3721 33.3021 50.0727 34.3203C49.863 35.1589 49.6534 35.8776 49.4437 36.4766C49.2641 37.0456 49.0844 37.5397 48.9047 37.959C48.725 38.3483 48.5453 38.6777 48.3656 38.9473C48.1859 39.1868 48.0212 39.4115 47.8715 39.6211C47.9314 40.5195 48.0062 41.2383 48.0961 41.7773C48.1859 42.3164 48.2908 42.7357 48.4105 43.0352C48.5603 43.3047 48.725 43.4993 48.9047 43.6191C49.1143 43.709 49.3389 43.7539 49.5785 43.7539C49.9978 43.7539 50.4919 43.5592 51.0609 43.1699C51.6299 42.7507 52.2139 42.2415 52.8129 41.6426C53.4418 41.0137 54.0557 40.3398 54.6547 39.6211C55.2836 38.8724 55.8526 38.1686 56.3617 37.5098C56.8708 36.8509 57.3051 36.2819 57.6645 35.8027C58.0238 35.2936 58.2484 34.9792 58.3383 34.8594C58.5479 34.5898 58.7426 34.4251 58.9223 34.3652C59.1319 34.3053 59.2966 34.3353 59.4164 34.4551C59.5362 34.5449 59.5961 34.7096 59.5961 34.9492C59.626 35.1589 59.5661 35.3984 59.4164 35.668C58.8174 36.806 58.0687 38.0189 57.1703 39.3066C56.3018 40.5645 55.3585 41.7324 54.3402 42.8105C53.352 43.8887 52.3487 44.7871 51.3305 45.5059C50.3122 46.2246 49.3539 46.584 48.4555 46.584C47.6469 46.584 47.003 46.3145 46.5238 45.7754C46.0746 45.2064 45.6853 44.3978 45.3559 43.3496C44.6671 44.4277 43.8585 45.2663 42.9301 45.8652C42.0017 46.4342 40.9685 46.7188 39.8305 46.7188ZM66.6848 38.0039C65.9061 39.1419 65.0975 40.25 64.259 41.3281C63.4504 42.4062 62.6568 43.3796 61.8781 44.248C61.1294 45.0866 60.4257 45.7604 59.7668 46.2695C59.1379 46.8086 58.6288 47.0781 58.2395 47.0781C57.3111 47.0781 56.5474 46.6439 55.9484 45.7754C55.3794 44.877 54.9302 43.7839 54.6008 42.4961C54.3013 41.1784 54.1066 39.7858 54.0168 38.3184C53.9569 36.821 53.9719 35.4883 54.0617 34.3203C54.1815 33.1523 54.3163 32.224 54.466 31.5352C54.6158 30.8164 54.7954 30.2624 55.0051 29.873C55.2447 29.4837 55.5142 29.1992 55.8137 29.0195C56.1431 28.8398 56.5474 28.6901 57.0266 28.5703C57.2362 28.5104 57.4758 28.4655 57.7453 28.4355C58.0148 28.4056 58.2544 28.4206 58.4641 28.4805C58.7036 28.5104 58.8833 28.6003 59.0031 28.75C59.1229 28.8997 59.1379 29.1243 59.048 29.4238C58.9882 29.6934 58.8833 30.0977 58.7336 30.6367C58.6138 31.1458 58.479 31.7298 58.3293 32.3887C58.1796 33.0475 58.0298 33.7363 57.8801 34.4551C57.7603 35.1738 57.6704 35.8626 57.6105 36.5215C57.5207 37.6595 57.5207 38.6628 57.6105 39.5312C57.7004 40.3698 57.8352 41.0885 58.0148 41.6875C58.1945 42.2565 58.3892 42.6908 58.5988 42.9902C58.8085 43.2897 58.9732 43.4395 59.093 43.4395C59.2427 43.4395 59.5122 43.2448 59.9016 42.8555C60.3208 42.4362 60.785 41.8971 61.2941 41.2383C61.8332 40.5794 62.3872 39.8158 62.9562 38.9473C63.5552 38.0788 64.1092 37.1803 64.6184 36.252C64.4387 35.7728 64.3638 35.2038 64.3937 34.5449C64.4836 33.5267 64.7082 32.6133 65.0676 31.8047C65.427 30.9661 65.8312 30.2624 66.2805 29.6934C66.7596 29.1243 67.2388 28.6901 67.718 28.3906C68.2271 28.0612 68.6763 27.8965 69.0656 27.8965C69.8443 27.8965 70.3234 28.1061 70.5031 28.5254C70.7128 28.9147 70.7876 29.319 70.7277 29.7383C70.6678 30.3672 70.3833 31.2357 69.8742 32.3438C69.3951 33.4219 68.7661 34.6048 67.9875 35.8926C68.1372 35.9525 68.302 36.0124 68.4816 36.0723C68.6613 36.1322 68.871 36.1621 69.1105 36.1621C70.1288 36.1621 71.0422 36.0423 71.8508 35.8027C72.6893 35.5632 73.4081 35.2786 74.007 34.9492C74.6359 34.6198 75.16 34.2754 75.5793 33.916C76.0285 33.5267 76.3879 33.2122 76.6574 32.9727C76.8371 32.793 77.0168 32.7031 77.1965 32.7031C77.3762 32.7031 77.5259 32.748 77.6457 32.8379C77.7655 32.9277 77.8254 33.0625 77.8254 33.2422C77.8254 33.4219 77.7355 33.6165 77.5559 33.8262C76.4777 35.1439 75.16 36.207 73.6027 37.0156C72.0754 37.8242 70.2785 38.2285 68.2121 38.2285C68.0324 38.2285 67.8078 38.2135 67.5383 38.1836C67.2687 38.1536 66.9842 38.0938 66.6848 38.0039ZM80.7812 19.541C80.6914 19.8704 80.5117 20.1999 80.2422 20.5293C80.0026 20.8288 79.7181 21.0833 79.3887 21.293C79.0892 21.4727 78.7747 21.5924 78.4453 21.6523C78.1159 21.7122 77.8464 21.6523 77.6367 21.4727C77.0078 20.9935 76.6784 20.4844 76.6484 19.9453C76.6185 19.3763 76.7533 18.8522 77.0527 18.373C77.3522 17.8639 77.7266 17.4447 78.1758 17.1152C78.625 16.7559 79.0143 16.5462 79.3438 16.4863C79.6732 16.4264 79.9427 16.5013 80.1523 16.7109C80.3919 16.8906 80.5716 17.1452 80.6914 17.4746C80.8112 17.7741 80.8711 18.1185 80.8711 18.5078C80.901 18.8971 80.8711 19.2415 80.7812 19.541ZM74.582 29.1094C74.7318 28.9297 75.0163 28.7799 75.4355 28.6602C75.8548 28.5404 76.2891 28.4505 76.7383 28.3906C77.1875 28.3008 77.5918 28.2559 77.9512 28.2559C78.3405 28.2259 78.5651 28.2259 78.625 28.2559C78.6549 28.2858 78.5801 28.6003 78.4004 29.1992C78.2207 29.7982 77.9961 30.502 77.7266 31.3105C77.457 32.1191 77.1725 32.9577 76.873 33.8262C76.5736 34.6647 76.349 35.3535 76.1992 35.8926C76.0495 36.4316 75.8698 37.0456 75.6602 37.7344C75.4505 38.3932 75.2559 39.0521 75.0762 39.7109C74.9264 40.3398 74.8216 40.9388 74.7617 41.5078C74.7018 42.0768 74.7467 42.5111 74.8965 42.8105C75.0462 43.1699 75.2109 43.4245 75.3906 43.5742C75.5703 43.694 75.765 43.7539 75.9746 43.7539C76.5736 43.7539 77.3223 43.4245 78.2207 42.7656C79.1491 42.1068 80.0775 41.3281 81.0059 40.4297C81.9642 39.5013 82.8477 38.5729 83.6562 37.6445C84.4648 36.6862 85.0638 35.9225 85.4531 35.3535C85.6927 35.054 85.9323 34.8594 86.1719 34.7695C86.4414 34.6797 86.651 34.6947 86.8008 34.8145C86.9805 34.9342 87.0703 35.1289 87.0703 35.3984C87.1003 35.668 87.0104 35.9824 86.8008 36.3418C86.3216 37.1803 85.6178 38.1836 84.6895 39.3516C83.7611 40.4896 82.7728 41.5977 81.7246 42.6758C80.6764 43.724 79.6432 44.6224 78.625 45.3711C77.6367 46.1198 76.8281 46.5091 76.1992 46.5391C75.6901 46.569 75.181 46.4792 74.6719 46.2695C74.1927 46.0898 73.7435 45.8353 73.3242 45.5059C72.9349 45.1465 72.6055 44.7422 72.3359 44.293C72.0664 43.8138 71.9167 43.3197 71.8867 42.8105C71.7969 42.0618 71.7969 41.0436 71.8867 39.7559C71.9766 38.4382 72.1413 37.1055 72.3809 35.7578C72.6204 34.3802 72.9199 33.0775 73.2793 31.8496C73.6686 30.6217 74.1029 29.7083 74.582 29.1094ZM86.7918 46.7188C85.6538 46.7188 84.7254 46.5391 84.0066 46.1797C83.2879 45.8203 82.7189 45.3861 82.2996 44.877C81.9103 44.3379 81.6258 43.7689 81.4461 43.1699C81.2964 42.541 81.2215 41.972 81.2215 41.4629C81.2215 40.5645 81.2964 39.6211 81.4461 38.6328C81.5958 37.6146 81.7755 36.6862 81.9852 35.8477C82.1948 34.9792 82.3745 34.2454 82.5242 33.6465C82.7039 33.0475 82.8237 32.6732 82.8836 32.5234C83.1531 31.6549 83.4975 30.9062 83.9168 30.2773C84.366 29.6185 84.9799 29.1693 85.7586 28.9297C86.0581 28.8698 86.3725 28.8099 86.702 28.75C86.9715 28.7201 87.241 28.7051 87.5105 28.7051C87.81 28.7051 88.0796 28.75 88.3191 28.8398C87.5105 30.9062 86.8667 32.6283 86.3875 34.0059C85.9383 35.3835 85.5939 36.5065 85.3543 37.375C85.0848 38.3633 84.92 39.1569 84.8602 39.7559C84.7104 41.1035 84.8302 42.1217 85.2195 42.8105C85.6089 43.4993 86.4025 43.8438 87.6004 43.8438C88.379 43.8438 89.1277 43.5592 89.8465 42.9902C90.5652 42.3913 91.2241 41.6276 91.823 40.6992C91.7332 40.2201 91.6883 39.7259 91.6883 39.2168C91.6883 38.2585 91.7631 37.3301 91.9129 36.4316C92.0926 35.5033 92.2872 34.6497 92.4969 33.8711C92.7365 33.0625 92.976 32.3438 93.2156 31.7148C93.4852 31.0859 93.7098 30.5918 93.8895 30.2324C94.2189 29.5137 94.5184 29.0794 94.7879 28.9297C95.0574 28.75 95.4917 28.6452 96.0906 28.6152C96.3302 28.5853 96.5249 28.5853 96.6746 28.6152C96.8543 28.6152 97.004 28.6302 97.1238 28.6602C97.4832 28.75 97.6629 28.9297 97.6629 29.1992C97.6629 29.6784 97.6329 30.3971 97.573 31.3555C97.5131 32.3138 97.3335 33.3021 97.034 34.3203C96.8243 35.1589 96.6147 35.8776 96.4051 36.4766C96.2254 37.0456 96.0457 37.5397 95.866 37.959C95.6863 38.3483 95.5066 38.6777 95.327 38.9473C95.1473 39.1868 94.9825 39.4115 94.8328 39.6211C94.8927 40.5195 94.9676 41.2383 95.0574 41.7773C95.1473 42.3164 95.2521 42.7357 95.3719 43.0352C95.5216 43.3047 95.6863 43.4993 95.866 43.6191C96.0756 43.709 96.3003 43.7539 96.5398 43.7539C96.9591 43.7539 97.4533 43.5592 98.0223 43.1699C98.5913 42.7507 99.1753 42.2415 99.7742 41.6426C100.403 41.0137 101.017 40.3398 101.616 39.6211C102.245 38.8724 102.814 38.1686 103.323 37.5098C103.832 36.8509 104.266 36.2819 104.626 35.8027C104.985 35.2936 105.21 34.9792 105.3 34.8594C105.509 34.5898 105.704 34.4251 105.884 34.3652C106.093 34.3053 106.258 34.3353 106.378 34.4551C106.498 34.5449 106.557 34.7096 106.557 34.9492C106.587 35.1589 106.527 35.3984 106.378 35.668C105.779 36.806 105.03 38.0189 104.132 39.3066C103.263 40.5645 102.32 41.7324 101.302 42.8105C100.313 43.8887 99.31 44.7871 98.2918 45.5059C97.2736 46.2246 96.3152 46.584 95.4168 46.584C94.6082 46.584 93.9643 46.3145 93.4852 45.7754C93.0359 45.2064 92.6466 44.3978 92.3172 43.3496C91.6284 44.4277 90.8198 45.2663 89.8914 45.8652C88.963 46.4342 87.9298 46.7188 86.7918 46.7188ZM121.418 43.9336C121.418 43.3047 121.477 42.5859 121.597 41.7773C121.747 40.9688 121.927 40.1452 122.136 39.3066C122.346 38.4382 122.556 37.5996 122.765 36.791C122.975 35.9824 123.155 35.2637 123.304 34.6348C123.484 33.8561 123.469 33.2572 123.259 32.8379C123.05 32.4186 122.69 32.209 122.181 32.209C121.942 32.209 121.463 32.4186 120.744 32.8379C120.055 33.2572 119.291 33.9909 118.453 35.0391C117.644 36.0573 116.836 37.4499 116.027 39.2168C115.248 40.9538 114.634 43.1699 114.185 45.8652C113.616 46.1647 113.077 46.3594 112.568 46.4492C112.298 46.5091 112.059 46.554 111.849 46.584C111.25 46.6139 110.861 46.5091 110.681 46.2695C110.502 46.0599 110.532 45.5208 110.771 44.6523C110.891 44.2331 111.101 43.5592 111.4 42.6309C111.729 41.7025 112.044 40.6992 112.343 39.6211C112.643 38.513 112.897 37.4199 113.107 36.3418C113.347 35.2337 113.466 34.2754 113.466 33.4668C113.466 32.8978 113.362 32.5085 113.152 32.2988C112.972 32.0892 112.703 31.9844 112.343 31.9844C112.074 31.9844 111.625 32.1341 110.996 32.4336C110.367 32.7331 109.663 33.3171 108.884 34.1855C108.106 35.054 107.327 36.2669 106.548 37.8242C105.8 39.3516 105.156 41.3431 104.617 43.7988V43.709C104.557 43.9486 104.497 44.1882 104.437 44.4277C104.377 44.6374 104.332 44.862 104.302 45.1016C104.272 45.3411 104.227 45.5658 104.168 45.7754L101.921 46.7637C101.772 46.8236 101.577 46.8685 101.338 46.8984C101.128 46.9284 100.918 46.8835 100.709 46.7637C100.529 46.6738 100.394 46.4642 100.304 46.1348C100.214 45.8053 100.244 45.3112 100.394 44.6523L103.224 32.9277C103.314 32.5384 103.389 32.1641 103.449 31.8047C103.509 31.4753 103.539 31.1608 103.539 30.8613C103.569 30.5319 103.554 30.2624 103.494 30.0527C104.003 29.8132 104.452 29.6335 104.841 29.5137C105.231 29.3939 105.545 29.304 105.785 29.2441C106.084 29.1543 106.339 29.1094 106.548 29.1094C107.507 29.1094 107.821 29.9329 107.492 31.5801C107.372 32.0592 107.192 32.763 106.953 33.6914C107.522 32.9727 108.121 32.2988 108.75 31.6699C109.408 31.0111 110.067 30.4271 110.726 29.918C111.385 29.4089 112.044 29.0046 112.703 28.7051C113.392 28.4056 114.065 28.2559 114.724 28.2559C115.233 28.2559 115.653 28.4056 115.982 28.7051C116.341 29.0046 116.611 29.4089 116.791 29.918C117 30.3971 117.12 30.9811 117.15 31.6699C117.18 32.3288 117.15 33.0176 117.06 33.7363C117.539 33.1074 118.063 32.4785 118.632 31.8496C119.231 31.1908 119.845 30.6068 120.474 30.0977C121.133 29.5885 121.807 29.1693 122.496 28.8398C123.185 28.5104 123.873 28.3457 124.562 28.3457C125.371 28.3457 125.985 28.5853 126.404 29.0645C126.853 29.5436 127.153 30.1576 127.302 30.9062C127.482 31.6549 127.527 32.4635 127.437 33.332C127.377 34.2005 127.257 35.0391 127.078 35.8477L125.55 41.9121C125.221 43.4095 125.535 44.1582 126.494 44.1582C127.242 44.1582 128.066 43.7988 128.964 43.0801C129.863 42.3613 130.731 41.5078 131.57 40.5195C132.438 39.5312 133.247 38.513 133.996 37.4648C134.744 36.4167 135.373 35.5781 135.882 34.9492C136.062 34.7396 136.242 34.6198 136.421 34.5898C136.631 34.5599 136.796 34.6048 136.916 34.7246C137.065 34.8145 137.14 34.9792 137.14 35.2188C137.17 35.4583 137.095 35.7578 136.916 36.1172C136.317 37.1654 135.583 38.3333 134.714 39.6211C133.846 40.8789 132.888 42.0618 131.839 43.1699C130.821 44.278 129.728 45.2064 128.56 45.9551C127.392 46.7038 126.179 47.0781 124.921 47.0781C124.502 47.0781 124.083 47.0332 123.664 46.9434C123.274 46.8535 122.9 46.6888 122.541 46.4492C122.211 46.2096 121.942 45.8952 121.732 45.5059C121.522 45.0866 121.418 44.5625 121.418 43.9336Z" fill="url(#paint0_linear_7_56)"/>
<path d="M95 21.55V2H142V70H95V54.7" stroke="url(#paint1_linear_7_56)" stroke-width="3"/>
<path fill-rule="evenodd" clip-rule="evenodd" d="M129.5 20C131.571 20 133.25 18.2091 133.25 16C133.25 13.7909 131.571 12 129.5 12C127.429 12 125.75 13.7909 125.75 16C125.75 18.2091 127.429 20 129.5 20Z" fill="#9928AB"/>
<defs>
<linearGradient id="paint0_linear_7_56" x1="-23" y1="37" x2="161" y2="40" gradientUnits="userSpaceOnUse">
<stop stop-color="#595959"/>
<stop offset="1" stop-color="#7C008E"/>
</linearGradient>
<linearGradient id="paint1_linear_7_56" x1="118.5" y1="2" x2="118.5" y2="70" gradientUnits="userSpaceOnUse">
<stop stop-color="#9928AB"/>
<stop offset="1" stop-color="#410002"/>
</linearGradient>
</defs>
</svg>
